<?xml version="1.0" encoding="UTF-8"?>
<svg width="128" height="128" viewBox="0 0 128 128" xmlns="http://www.w3.org/2000/svg">
  <defs>
    <!-- Main gradient -->
    <linearGradient id="mainGradient" x1="0%" y1="0%" x2="100%" y2="100%">
      <stop offset="0%" style="stop-color:#007ACC;stop-opacity:1" />
      <stop offset="100%" style="stop-color:#005A9E;stop-opacity:1" />
    </linearGradient>
    
    <!-- Rocket gradient -->
    <linearGradient id="rocketGradient" x1="0%" y1="0%" x2="100%" y2="100%">
      <stop offset="0%" style="stop-color:#FF6B35;stop-opacity:1" />
      <stop offset="100%" style="stop-color:#F7931E;stop-opacity:1" />
    </linearGradient>
  </defs>
  
  <!-- Background -->
  <rect width="128" height="128" rx="20" fill="url(#mainGradient)"/>
  
  <!-- Server stack (simplified) -->
  <g transform="translate(20, 40)">
    <rect x="0" y="0" width="48" height="10" rx="2" fill="white" opacity="0.9"/>
    <rect x="0" y="15" width="48" height="10" rx="2" fill="white" opacity="0.8"/>
    <rect x="0" y="30" width="48" height="10" rx="2" fill="white" opacity="0.7"/>
    
    <!-- Status indicators -->
    <circle cx="8" cy="5" r="2" fill="#00D084"/>
    <circle cx="8" cy="20" r="2" fill="#00D084"/>
    <circle cx="8" cy="35" r="2" fill="#00D084"/>
  </g>
  
  <!-- Rocket (auto-start symbol) -->
  <g transform="translate(75, 25)">
    <!-- Rocket body -->
    <path d="M 16 15 L 24 15 L 26 35 L 14 35 Z" fill="url(#rocketGradient)"/>
    <!-- Rocket nose -->
    <path d="M 20 5 L 16 15 L 24 15 Z" fill="#FFD23F"/>
    <!-- Exhaust -->
    <path d="M 16 35 Q 20 45 24 35" fill="#FFD23F" opacity="0.8"/>
    <!-- Window -->
    <circle cx="20" cy="22" r="3" fill="white" opacity="0.9"/>
  </g>
  
  <!-- Play button overlay -->
  <g transform="translate(85, 85)">
    <circle cx="10" cy="10" r="12" fill="#00D084"/>
    <path d="M 7 6 L 7 14 L 14 10 Z" fill="white"/>
  </g>
  
  <!-- Connection line -->
  <path d="M 68 45 Q 75 42 80 45" stroke="white" stroke-width="2" fill="none" opacity="0.6" stroke-dasharray="2,2"/>
</svg>
