<?xml version="1.0" encoding="UTF-8"?>
<svg width="128" height="128" viewBox="0 0 128 128" xmlns="http://www.w3.org/2000/svg">
  <defs>
    <!-- VSCode-style gradient -->
    <linearGradient id="vscodeGradient" x1="0%" y1="0%" x2="100%" y2="100%">
      <stop offset="0%" style="stop-color:#007ACC;stop-opacity:1" />
      <stop offset="100%" style="stop-color:#005A9E;stop-opacity:1" />
    </linearGradient>
    
    <!-- Accent gradient -->
    <linearGradient id="accentGradient" x1="0%" y1="0%" x2="100%" y2="100%">
      <stop offset="0%" style="stop-color:#FF6B35;stop-opacity:1" />
      <stop offset="100%" style="stop-color:#F7931E;stop-opacity:1" />
    </linearGradient>
  </defs>
  
  <!-- Main background -->
  <rect width="128" height="128" rx="16" fill="url(#vscodeGradient)"/>
  
  <!-- Server stack -->
  <g transform="translate(24, 35)">
    <!-- Server 1 -->
    <rect x="0" y="0" width="40" height="12" rx="3" fill="white" opacity="0.9"/>
    <circle cx="8" cy="6" r="2" fill="#00D084"/>
    <circle cx="16" cy="6" r="2" fill="#00D084"/>
    <rect x="24" y="4" width="12" height="4" rx="1" fill="#E1E4E8"/>
    
    <!-- Server 2 -->
    <rect x="0" y="18" width="40" height="12" rx="3" fill="white" opacity="0.8"/>
    <circle cx="8" cy="24" r="2" fill="#00D084"/>
    <circle cx="16" cy="24" r="2" fill="#00D084"/>
    <rect x="24" y="22" width="12" height="4" rx="1" fill="#E1E4E8"/>
    
    <!-- Server 3 -->
    <rect x="0" y="36" width="40" height="12" rx="3" fill="white" opacity="0.7"/>
    <circle cx="8" cy="42" r="2" fill="#FFA500"/>
    <circle cx="16" cy="42" r="2" fill="#FFA500"/>
    <rect x="24" y="40" width="12" height="4" rx="1" fill="#E1E4E8"/>
  </g>
  
  <!-- Rocket/Launch icon -->
  <g transform="translate(75, 30)">
    <!-- Rocket body -->
    <path d="M 16 10 Q 20 8 24 10 L 24 40 Q 20 45 16 40 Z" fill="url(#accentGradient)"/>
    
    <!-- Rocket nose -->
    <path d="M 20 8 Q 22 5 20 2 Q 18 5 20 8" fill="#FFD23F"/>
    
    <!-- Rocket fins -->
    <path d="M 14 35 L 16 30 L 16 42 Z" fill="#D63031"/>
    <path d="M 26 35 L 24 30 L 24 42 Z" fill="#D63031"/>
    
    <!-- Rocket window -->
    <circle cx="20" cy="20" r="4" fill="#87CEEB" opacity="0.9"/>
    <circle cx="20" cy="20" r="2" fill="white" opacity="0.8"/>
    
    <!-- Exhaust flame -->
    <ellipse cx="20" cy="48" rx="6" ry="8" fill="#FFD23F" opacity="0.8"/>
    <ellipse cx="20" cy="50" rx="4" ry="6" fill="#FF6B35" opacity="0.9"/>
  </g>
  
  <!-- Auto-start play button -->
  <g transform="translate(85, 85)">
    <circle cx="12" cy="12" r="15" fill="white" opacity="0.95"/>
    <circle cx="12" cy="12" r="12" fill="#00D084"/>
    <path d="M 8 7 L 8 17 L 17 12 Z" fill="white"/>
  </g>
  
  <!-- Connection arrows -->
  <g stroke="white" stroke-width="2" fill="none" opacity="0.7">
    <path d="M 64 41 L 72 38" marker-end="url(#arrowhead)"/>
    <path d="M 64 59 L 72 56" marker-end="url(#arrowhead)"/>
  </g>
  
  <!-- Arrow marker -->
  <defs>
    <marker id="arrowhead" markerWidth="10" markerHeight="7" 
            refX="9" refY="3.5" orient="auto">
      <polygon points="0 0, 10 3.5, 0 7" fill="white" opacity="0.7"/>
    </marker>
  </defs>
  
  <!-- Subtle sparkle effects -->
  <g fill="white" opacity="0.6">
    <circle cx="30" cy="25" r="1"/>
    <circle cx="95" cy="30" r="1"/>
    <circle cx="35" cy="90" r="1"/>
    <circle cx="100" cy="75" r="1"/>
  </g>
</svg>
