<?xml version="1.0" encoding="UTF-8"?>
<svg width="128" height="128" viewBox="0 0 128 128" xmlns="http://www.w3.org/2000/svg">
  <defs>
    <!-- Gradient for the rocket -->
    <linearGradient id="rocketGradient" x1="0%" y1="0%" x2="100%" y2="100%">
      <stop offset="0%" style="stop-color:#007ACC;stop-opacity:1" />
      <stop offset="100%" style="stop-color:#005A9E;stop-opacity:1" />
    </linearGradient>
    
    <!-- Gradient for the server -->
    <linearGradient id="serverGradient" x1="0%" y1="0%" x2="100%" y2="100%">
      <stop offset="0%" style="stop-color:#4A90E2;stop-opacity:1" />
      <stop offset="100%" style="stop-color:#357ABD;stop-opacity:1" />
    </linearGradient>
    
    <!-- Gradient for the flame -->
    <linearGradient id="flameGradient" x1="0%" y1="0%" x2="100%" y2="100%">
      <stop offset="0%" style="stop-color:#FF6B35;stop-opacity:1" />
      <stop offset="50%" style="stop-color:#F7931E;stop-opacity:1" />
      <stop offset="100%" style="stop-color:#FFD23F;stop-opacity:1" />
    </linearGradient>
  </defs>
  
  <!-- Background circle -->
  <circle cx="64" cy="64" r="60" fill="#F8F9FA" stroke="#E1E4E8" stroke-width="2"/>
  
  <!-- Server stack (representing MCP servers) -->
  <g transform="translate(20, 45)">
    <!-- Server 1 -->
    <rect x="0" y="0" width="32" height="8" rx="2" fill="url(#serverGradient)" opacity="0.8"/>
    <circle cx="6" cy="4" r="1.5" fill="#00D084"/>
    <circle cx="12" cy="4" r="1.5" fill="#00D084"/>
    
    <!-- Server 2 -->
    <rect x="0" y="12" width="32" height="8" rx="2" fill="url(#serverGradient)" opacity="0.9"/>
    <circle cx="6" cy="16" r="1.5" fill="#00D084"/>
    <circle cx="12" cy="16" r="1.5" fill="#00D084"/>
    
    <!-- Server 3 -->
    <rect x="0" y="24" width="32" height="8" rx="2" fill="url(#serverGradient)"/>
    <circle cx="6" cy="28" r="1.5" fill="#00D084"/>
    <circle cx="12" cy="28" r="1.5" fill="#00D084"/>
  </g>
  
  <!-- Rocket (representing auto-start) -->
  <g transform="translate(65, 25)">
    <!-- Rocket body -->
    <ellipse cx="12" cy="25" rx="8" ry="20" fill="url(#rocketGradient)"/>
    
    <!-- Rocket nose -->
    <path d="M 12 5 L 8 20 L 16 20 Z" fill="url(#rocketGradient)"/>
    
    <!-- Rocket fins -->
    <path d="M 4 35 L 8 30 L 8 40 Z" fill="#005A9E"/>
    <path d="M 20 35 L 16 30 L 16 40 Z" fill="#005A9E"/>
    
    <!-- Rocket window -->
    <circle cx="12" cy="18" r="3" fill="#87CEEB" opacity="0.8"/>
    
    <!-- Flame/exhaust -->
    <path d="M 8 45 Q 12 55 16 45 Q 12 50 8 45" fill="url(#flameGradient)"/>
    <path d="M 10 45 Q 12 52 14 45 Q 12 48 10 45" fill="#FFD23F" opacity="0.8"/>
  </g>
  
  <!-- Connection lines (representing automation) -->
  <g stroke="#007ACC" stroke-width="2" fill="none" opacity="0.6">
    <path d="M 52 49 Q 60 45 65 50" stroke-dasharray="3,2"/>
    <path d="M 52 61 Q 60 57 65 62" stroke-dasharray="3,2"/>
    <path d="M 52 73 Q 60 69 65 74" stroke-dasharray="3,2"/>
  </g>
  
  <!-- Auto-start indicator (play button overlay) -->
  <g transform="translate(85, 85)">
    <circle cx="8" cy="8" r="12" fill="#00D084" opacity="0.9"/>
    <path d="M 5 4 L 5 12 L 12 8 Z" fill="white"/>
  </g>
  
  <!-- Sparkles (representing automation magic) -->
  <g fill="#FFD23F" opacity="0.7">
    <path d="M 25 25 L 27 27 L 25 29 L 23 27 Z"/>
    <path d="M 100 35 L 102 37 L 100 39 L 98 37 Z"/>
    <path d="M 30 95 L 32 97 L 30 99 L 28 97 Z"/>
    <path d="M 95 95 L 97 97 L 95 99 L 93 97 Z"/>
  </g>
</svg>
